<svg version="1.2" xmlns="http://www.w3.org/2000/svg" viewBox="0 0 700 700" width="700" height="700">
	<title>noun-settings-4903785-svg</title>
	<style>
		.s0 { fill: #000000 } 
	</style>
	<path id="Layer" fill-rule="evenodd" class="s0" d="m368.3 571.7c4.8 0 9.1-3 10.9-7.5 22-57.3 81.1-91.4 141.7-81.8 4.8 0.7 9.5-1.6 11.9-5.7l18.3-31.7c2.4-4.2 2-9.4-1-13.2-38.6-47.7-38.6-115.9 0-163.6 3-3.8 3.4-9 1-13.2l-18.3-31.6c-2.4-4.2-7.1-6.5-11.9-5.7-60.6 9.5-119.7-24.6-141.7-81.9-1.8-4.5-6.1-7.5-10.9-7.5h-36.6c-4.8 0-9.1 3-10.9 7.5-22 57.3-81.1 91.4-141.7 81.9-4.8-0.8-9.5 1.5-11.9 5.7l-18.3 31.6c-2.4 4.2-2 9.4 1 13.2 38.6 47.7 38.6 115.9 0 163.6-3 3.8-3.4 9-1 13.2l18.3 31.7c2.4 4.1 7.1 6.4 11.9 5.6 60.6-9.5 119.7 24.6 141.7 81.9 1.8 4.5 6.1 7.5 10.9 7.5zm-219.3-126.7l-40.5 23.3 40.5-23.3q0 0 0 0zm-40.5 23.3c-12-20.9-10-47 5.2-65.8 24.8-30.6 24.8-74.4 0-105-15.2-18.8-17.2-44.9-5.2-65.9l18.3-31.6c12.1-20.9 35.8-32.2 59.6-28.4 38.9 6.1 76.8-15.8 90.9-52.5 8.7-22.6 30.4-37.4 54.5-37.4h36.5c24.2 0 45.8 14.8 54.5 37.4 14.1 36.7 52 58.6 90.9 52.5 23.8-3.8 47.5 7.5 59.6 28.4l18.3 31.6c12 21 10 47.1-5.2 65.9-24.7 30.6-24.7 74.4 0 105 15.2 18.8 17.2 44.9 5.2 65.8l-18.3 31.7c-12.1 20.9-35.8 32.2-59.6 28.4-38.9-6.1-76.8 15.8-90.9 52.5-8.7 22.6-30.3 37.4-54.5 37.4h-36.5c-24.1 0-45.8-14.8-54.5-37.4-14.1-36.7-52-58.6-90.9-52.5-23.8 3.8-47.5-7.5-59.6-28.4l-18.3-31.7zm136.6-118.3c0-58 47-105 105-105 58 0 105 47 105 105 0 58-47 105-105 105-58 0-105-47-105-105zm105 58.3c32.2 0 58.3-26.1 58.3-58.3 0-32.2-26.1-58.3-58.3-58.3-32.3 0-58.4 26.1-58.4 58.3 0 32.2 26.1 58.3 58.4 58.3z"/>
</svg>